<?xml version="1.0" standalone="no"?>
<!DOCTYPE svg PUBLIC "-//W3C//DTD SVG 20010904//EN"
 "http://www.w3.org/TR/2001/REC-SVG-20010904/DTD/svg10.dtd">
<svg version="1.0" xmlns="http://www.w3.org/2000/svg"
 width="1200.000000pt" height="628.000000pt" viewBox="0 0 1200.000000 628.000000"
 preserveAspectRatio="xMidYMid meet">
<metadata>
Created by potrace 1.16, written by Peter Selinger 2001-2019
</metadata>
<g transform="translate(0.000000,628.000000) scale(0.100000,-0.100000)"
fill="#000000" stroke="none">
<path d="M3033 6217 c-29 -34 -76 -87 -105 -119 -29 -31 -82 -89 -118 -128
-36 -40 -77 -85 -92 -102 -16 -17 -28 -34 -28 -39 0 -5 -11 -15 -25 -21 -14
-6 -25 -18 -25 -26 0 -8 -12 -26 -28 -40 -15 -15 -40 -45 -57 -67 -29 -39
-136 -155 -187 -203 -16 -14 -28 -29 -28 -33 0 -9 -37 -51 -102 -119 -21 -22
-38 -44 -38 -50 0 -6 -11 -15 -25 -20 -14 -5 -25 -16 -25 -24 0 -8 -16 -28
-35 -45 -19 -17 -35 -35 -35 -41 0 -5 -26 -36 -57 -68 -32 -32 -83 -87 -113
-122 -30 -35 -67 -77 -82 -92 -15 -16 -37 -43 -49 -61 -13 -18 -40 -49 -61
-70 -21 -22 -43 -47 -48 -58 -6 -10 -16 -19 -23 -19 -7 0 -22 -15 -34 -33 -13
-18 -56 -68 -98 -111 -41 -43 -75 -82 -75 -87 0 -4 -12 -21 -28 -37 -15 -15
-49 -54 -77 -87 -27 -32 -58 -66 -68 -74 -11 -9 -23 -26 -28 -38 -5 -13 -15
-23 -24 -23 -8 0 -15 -4 -15 -8 0 -9 -63 -83 -133 -155 -27 -28 -55 -63 -63
-79 -8 -15 -21 -28 -29 -28 -8 0 -19 -10 -26 -22 -6 -13 -23 -34 -38 -48 -15
-14 -33 -35 -40 -47 -6 -13 -18 -23 -26 -23 -8 0 -15 -7 -15 -16 0 -9 -27 -43
-60 -76 -33 -32 -60 -63 -60 -67 0 -5 -16 -21 -35 -35 -19 -15 -35 -33 -35
-41 0 -8 -8 -20 -18 -27 -10 -7 -35 -35 -57 -63 -21 -27 -55 -66 -74 -86 -20
-20 -58 -63 -86 -95 -27 -32 -76 -85 -107 -118 -32 -32 -58 -61 -58 -65 0 -4
-15 -23 -32 -42 -18 -20 -53 -60 -78 -89 -25 -29 -64 -73 -88 -97 l-42 -45 0
-1394 0 -1394 945 0 945 0 -5 25 c-3 14 -7 36 -10 49 -6 31 10 121 31 166 19
43 96 107 149 126 82 28 197 17 420 -40 149 -38 217 -47 352 -47 132 1 178 13
215 56 18 21 30 25 78 25 l56 0 12 98 c39 309 159 700 283 914 16 29 35 65 40
80 6 16 15 28 19 28 5 0 12 10 15 21 10 29 96 167 162 256 29 40 53 77 53 82
0 5 3 11 8 13 12 5 72 86 72 97 0 18 39 13 61 -8 11 -10 43 -30 72 -45 29 -15
66 -35 82 -45 97 -56 315 -98 435 -85 l55 7 -46 -49 c-82 -88 -259 -322 -259
-344 0 -6 -4 -10 -8 -10 -9 0 -39 -45 -107 -159 -40 -67 -125 -248 -125 -267
0 -5 -8 -28 -19 -50 -62 -129 -168 -503 -154 -540 3 -8 39 -11 121 -9 64 1
254 6 422 9 676 14 882 26 938 55 53 27 80 63 88 118 6 44 -10 148 -24 155 -4
2 -18 26 -31 53 -14 28 -40 71 -58 96 -18 26 -33 51 -33 57 0 6 -6 17 -13 24
-7 7 -44 63 -82 123 -38 61 -103 162 -145 225 -89 133 -150 228 -150 235 0 5
-119 199 -153 251 -31 44 -34 64 -11 64 23 0 106 63 151 114 21 24 56 79 77
122 37 75 39 84 40 174 0 92 -26 220 -46 220 -4 0 -8 5 -8 10 0 18 -77 113
-121 150 -57 47 -165 106 -241 131 -86 29 -226 36 -302 16 -57 -15 -59 -15
-80 7 -29 30 -74 82 -119 138 -21 26 -90 100 -155 165 -173 174 -206 223 -222
331 -25 162 68 292 210 292 85 0 151 -32 221 -108 59 -65 129 -172 144 -222 4
-14 23 -56 41 -94 19 -38 34 -75 34 -83 0 -7 4 -13 8 -13 5 0 19 -21 32 -47
33 -67 130 -213 160 -241 35 -32 99 -62 135 -62 29 0 65 -28 65 -49 0 -21 35
-19 74 3 68 41 315 162 406 200 155 64 367 129 560 172 41 9 93 20 115 25 156
34 529 49 725 30 267 -27 310 -33 368 -52 34 -12 69 -18 76 -16 8 3 20 31 27
63 11 48 17 58 43 70 37 15 104 79 128 120 51 89 77 215 103 494 8 91 20 181
26 200 54 165 126 233 246 232 70 0 92 -14 161 -97 21 -26 42 -121 42 -193 0
-70 -20 -173 -40 -210 -5 -10 -18 -37 -29 -62 -21 -46 -52 -104 -113 -207
-104 -178 -120 -318 -47 -424 16 -23 16 -29 4 -53 -25 -47 -40 -233 -26 -318
11 -69 56 -207 71 -218 4 -3 10 -15 14 -27 4 -13 12 -23 17 -23 5 0 9 -6 9
-14 0 -28 106 -112 171 -136 90 -33 229 -33 323 0 36 13 66 27 66 32 0 4 6 8
13 8 17 0 88 75 116 123 13 20 26 37 30 37 4 0 18 -11 31 -25 13 -14 27 -25
31 -25 5 0 21 -12 37 -28 16 -15 68 -63 117 -107 48 -44 113 -106 144 -138 31
-32 66 -68 77 -80 12 -12 59 -69 105 -127 46 -58 87 -106 91 -108 4 -2 8 -9 8
-15 0 -7 14 -26 30 -44 17 -18 30 -35 30 -39 0 -3 22 -36 48 -73 27 -36 59
-84 72 -106 13 -22 27 -42 30 -45 3 -3 17 -26 30 -53 14 -26 32 -57 41 -69
l17 -22 52 26 c48 24 55 25 86 12 114 -48 348 22 511 153 23 18 44 33 47 33 4
0 32 17 64 39 150 101 290 140 393 110 82 -25 149 -113 149 -195 0 -45 -35
-126 -71 -164 -80 -85 -222 -144 -474 -195 -71 -15 -152 -33 -180 -40 -119
-32 -219 -107 -244 -183 -12 -35 -21 -44 -63 -62 -27 -11 -52 -28 -55 -37 -4
-9 5 -51 20 -92 51 -147 109 -482 122 -703 l7 -118 1149 0 1149 0 0 1601 0
1601 -40 46 c-22 24 -40 51 -40 58 0 8 -4 14 -9 14 -5 0 -28 28 -51 63 -60 90
-143 197 -152 197 -4 0 -8 5 -8 12 0 6 -26 45 -57 87 -82 109 -123 171 -123
187 0 8 -6 14 -12 14 -7 0 -25 19 -40 43 -15 23 -39 53 -53 67 -14 13 -25 29
-25 37 0 7 -4 13 -8 13 -5 0 -14 10 -20 23 -7 12 -27 42 -46 67 -19 25 -35 49
-35 53 -1 4 -12 19 -26 33 -14 14 -25 28 -25 32 0 4 -11 19 -24 33 -13 14 -43
54 -67 90 -24 35 -52 73 -61 83 -10 11 -24 32 -30 48 -7 15 -17 28 -23 28 -5
1 -30 33 -55 72 -25 39 -60 87 -77 107 -18 20 -33 40 -33 44 0 12 -81 121 -97
130 -7 4 -13 15 -13 22 0 18 -16 20 -24 3 -3 -7 -4 -4 -1 8 3 13 -8 38 -35 74
-22 29 -40 57 -40 61 0 4 -16 24 -35 45 -19 22 -35 43 -35 47 0 4 -4 13 -10
20 -50 62 -133 172 -156 208 -16 24 -61 88 -101 142 -40 54 -73 104 -73 111 0
8 -7 16 -15 19 -8 4 -27 25 -42 49 -15 24 -30 45 -33 48 -14 13 -70 89 -70 95
0 3 -18 28 -40 54 -22 26 -40 50 -40 54 0 10 -168 177 -177 177 -5 0 -33 17
-63 38 -53 35 -89 54 -155 82 -16 6 -43 18 -58 26 -24 12 -500 14 -3245 14
l-3217 0 -52 -63z m3562 -101 c50 -34 156 -125 208 -181 84 -90 194 -300 223
-424 20 -92 16 -191 -10 -220 -49 -55 -162 -5 -256 112 -81 100 -133 219 -170
387 -31 141 -72 250 -97 258 -10 3 -9 -5 1 -30 22 -53 28 -143 18 -269 -10
-121 -6 -156 26 -249 15 -44 20 -93 13 -118 -1 -1 -40 38 -88 86 -75 75 -115
107 -220 175 -33 21 -6 -17 60 -85 72 -75 134 -146 151 -177 5 -8 14 -22 20
-29 6 -7 16 -18 21 -25 53 -64 112 -177 145 -280 45 -136 56 -219 42 -317 -11
-79 -7 -112 18 -130 15 -12 119 -181 147 -240 49 -103 63 -164 63 -269 0 -181
-59 -368 -147 -469 -32 -37 -49 -47 -108 -63 -84 -23 -148 -24 -205 -4 -70 25
-75 33 -42 69 33 35 68 118 57 136 -4 7 -16 2 -33 -16 -51 -51 -222 -154 -256
-154 -9 0 -16 -4 -16 -8 0 -15 -144 -42 -225 -42 -150 0 -304 60 -515 201 -63
42 -126 86 -139 98 -13 12 -27 21 -30 21 -3 0 -31 22 -61 50 -49 44 -80 61
-80 44 0 -16 42 -80 110 -168 24 -31 123 -138 150 -162 14 -12 42 -38 63 -58
82 -75 219 -154 346 -197 70 -24 216 -26 281 -3 96 34 170 78 239 143 24 23
45 41 46 41 1 0 15 -11 31 -25 16 -14 42 -31 57 -38 34 -15 33 -33 -8 -152
-16 -44 -29 -85 -31 -92 -2 -7 -40 -13 -101 -17 -373 -25 -494 -45 -808 -138
-82 -24 -172 -55 -200 -68 -11 -5 -51 -21 -89 -35 -79 -30 -319 -145 -387
-187 -25 -15 -50 -28 -55 -28 -5 0 -19 16 -32 35 -20 31 -27 35 -66 35 -87 0
-125 35 -237 219 l-69 113 38 38 c52 53 89 108 111 166 24 64 45 223 36 283
-17 127 -71 291 -96 291 -4 0 -13 -10 -20 -22 -11 -20 -13 -17 -40 38 -38 80
-49 91 -64 70 -7 -9 -15 -16 -18 -16 -6 0 -33 72 -42 115 l-7 30 -18 -25 c-10
-14 -21 -23 -23 -20 -12 14 -27 107 -27 167 0 38 -5 74 -11 80 -12 12 -8 457
4 469 3 3 36 -7 74 -22 61 -26 80 -28 178 -28 125 0 182 18 236 76 78 83 128
258 114 401 -24 247 -137 697 -177 705 -12 2 -11 -20 7 -125 13 -70 30 -168
38 -218 57 -330 45 -469 -48 -569 -76 -81 -174 -126 -276 -126 -102 0 -187 47
-309 169 -52 53 -106 109 -119 126 -40 47 -98 176 -105 229 -8 65 17 154 65
231 21 32 35 63 32 68 -3 5 -20 6 -37 3 l-31 -6 30 26 c17 13 57 41 90 61 33
20 68 43 77 51 21 17 13 36 -11 27 -35 -13 15 25 69 53 71 37 75 52 14 52 -60
0 -49 11 24 27 31 6 102 26 157 44 83 26 117 32 200 33 91 1 103 -1 135 -24
19 -13 37 -28 39 -34 2 -5 54 -59 115 -120 81 -81 127 -119 170 -140 65 -31
67 -31 185 12 47 17 104 34 128 38 24 3 46 10 49 15 3 5 12 9 20 9 8 0 41 17
72 39 88 59 142 85 142 67 0 -8 -6 -19 -13 -23 -7 -4 -23 -25 -35 -45 -38 -61
3 -60 76 3 51 45 67 39 30 -11 -12 -16 -19 -32 -16 -35 3 -4 41 12 83 35 42
23 80 39 82 36 3 -3 -7 -22 -22 -41 -15 -20 -24 -39 -20 -43 4 -4 43 -10 88
-13 45 -4 119 -12 163 -19 78 -12 84 -12 129 10 31 15 93 69 176 152 79 79
144 136 171 148 58 28 117 20 183 -24z m1290 -2901 c179 -34 269 -74 365 -162
52 -46 100 -120 128 -196 25 -65 30 -205 11 -254 -36 -88 -52 -114 -91 -153
-52 -50 -94 -73 -175 -94 -99 -26 -208 -15 -289 27 -116 61 -218 251 -231 433
-6 82 19 268 38 289 5 5 9 18 9 30 -1 19 -1 19 -14 3 -7 -10 -16 -18 -19 -18
-10 0 -34 51 -42 89 l-7 34 118 -6 c66 -3 155 -13 199 -22z m-3827 -368 c23
-29 56 -68 72 -87 33 -39 37 -50 17 -50 -18 0 -78 -30 -95 -47 -11 -11 -11
-13 0 -13 8 0 18 4 24 9 5 5 52 21 104 36 84 24 106 27 190 21 59 -4 116 -14
150 -27 273 -103 419 -285 409 -508 -5 -91 -43 -179 -111 -251 -91 -96 -167
-127 -336 -136 -228 -13 -399 43 -602 194 -138 102 -183 159 -220 275 -18 56
-22 86 -18 156 4 83 6 89 52 161 27 41 52 77 55 80 4 3 17 21 29 40 37 60 206
212 225 204 7 -3 31 -29 55 -57z m664 -1169 c41 -68 88 -145 103 -173 15 -27
52 -85 81 -128 30 -43 54 -80 54 -82 0 -2 15 -25 33 -50 17 -26 37 -54 42 -63
6 -10 24 -37 41 -62 31 -46 141 -227 228 -373 83 -141 94 -196 50 -263 -43
-67 -75 -74 -399 -90 -374 -18 -1090 -29 -1097 -18 -14 22 66 313 130 474 5
14 18 45 28 70 47 120 93 214 151 310 65 105 198 300 231 336 9 10 32 38 50
60 63 81 144 163 165 167 12 2 24 5 27 6 3 0 40 -54 82 -121z"/>
<path d="M6355 5068 c-13 -57 -9 -125 10 -175 10 -26 21 -50 24 -53 3 -3 14
-18 23 -35 14 -25 25 -31 65 -36 26 -3 64 -9 84 -13 l36 -8 7 50 c8 64 -1 124
-29 187 -35 79 -90 115 -175 115 -34 0 -38 -3 -45 -32z"/>
<path d="M5390 5035 c-105 -33 -150 -81 -171 -183 -11 -54 -11 -68 5 -117 9
-30 27 -67 40 -81 l22 -27 64 22 c44 16 93 23 167 25 57 2 106 6 108 8 8 7 35
122 35 145 0 13 -9 49 -20 80 -20 57 -20 57 0 78 26 28 25 51 -2 59 -42 11
-202 5 -248 -9z"/>
<path d="M6337 4229 c-114 -32 -163 -65 -151 -101 18 -59 102 -145 179 -185
105 -54 170 -52 234 8 22 21 41 43 41 47 0 5 8 17 18 28 39 42 67 124 63 186
-3 41 -261 52 -384 17z"/>
<path d="M6345 2544 c-206 -16 -512 -64 -629 -100 -287 -87 -466 -158 -535
-213 l-25 -19 44 -59 c24 -32 59 -76 77 -98 18 -22 70 -85 115 -141 46 -55 97
-117 113 -138 17 -21 37 -46 45 -56 8 -9 25 -30 37 -46 248 -330 234 -313 358
-439 119 -121 160 -145 245 -145 96 0 141 34 187 139 65 148 119 290 157 411
15 47 31 94 36 105 5 11 24 67 44 125 19 58 47 137 62 175 14 39 32 90 40 115
7 25 36 110 63 189 28 79 51 146 51 150 0 4 -31 14 -68 24 -68 18 -306 29
-417 21z m386 -40 c38 -8 69 -19 69 -22 0 -4 -26 -83 -59 -177 -47 -138 -62
-170 -77 -171 -43 -1 -244 91 -275 127 -11 13 -18 46 -22 109 -6 97 -11 112
-31 104 -9 -4 -15 -39 -20 -122 -3 -64 -10 -153 -16 -197 -5 -44 -14 -125 -20
-180 -17 -152 -47 -314 -91 -485 -39 -153 -92 -317 -108 -333 -22 -22 -206
175 -388 418 -112 148 -171 224 -267 337 -48 58 -96 117 -163 203 -5 6 -23 29
-41 52 l-33 42 43 27 c24 15 61 34 83 43 22 8 42 18 45 21 10 11 375 129 445
144 270 57 407 73 668 75 140 1 206 -3 258 -15z"/>
<path d="M7433 2318 c-6 -7 -24 -87 -42 -178 -18 -91 -36 -178 -42 -195 -5
-16 -23 -91 -40 -165 -17 -74 -37 -157 -44 -185 -8 -27 -22 -88 -31 -135 -19
-100 -34 -172 -64 -295 -58 -246 26 -414 209 -415 120 0 169 15 701 217 36 14
83 31 105 38 22 7 78 27 125 45 47 17 103 37 125 44 82 27 275 108 275 116 0
15 -53 110 -61 110 -5 0 -9 5 -9 12 0 6 -11 26 -25 44 -14 18 -25 37 -25 43 0
5 -6 14 -13 18 -7 4 -28 28 -47 53 -82 107 -321 350 -430 437 -198 157 -590
403 -643 403 -8 0 -19 -6 -24 -12z"/>
<path d="M8920 610 c0 -5 -6 -10 -14 -10 -8 0 -45 -15 -82 -34 -112 -54 -274
-132 -344 -164 -218 -100 -751 -371 -775 -393 -5 -5 273 -9 674 -9 l683 0 -6
53 c-4 28 -8 79 -11 112 -14 186 -42 332 -82 423 -13 29 -43 45 -43 22z"/>
<path d="M6285 343 c-22 -15 -49 -35 -59 -45 -11 -10 -24 -18 -29 -18 -5 0
-21 -10 -36 -22 -15 -13 -38 -31 -52 -40 -13 -10 -43 -31 -65 -47 -38 -27 -42
-35 -46 -78 -2 -26 -2 -58 0 -71 l4 -22 419 0 c412 0 419 0 419 20 0 11 -4 20
-10 20 -5 0 -10 6 -10 13 0 12 -47 117 -83 186 -12 25 -18 27 -262 95 -137 39
-145 39 -190 9z"/>
</g>
</svg>
